# AST/ASF file generated using VICON BodyLanguage
# -----------------------------------------------
:version 1.10
:name VICON
:units
  mass 1.0
  length 0.45
  angle deg
:documentation
   .ast/.asf automatically generated from VICON data using
   VICON BodyBuilder and BodyLanguage model FoxedUp or BRILLIANT.MOD
:root
   order TX TY TZ RX RY RZ
   axis XYZ
   position 0 0 0  
   orientation 0 0 0 
:bonedata
  begin
     id 1 
     name lhipjoint
     direction 0.578396 -0.714046 0.394458 
     length 2.21935 
     axis 0 0 0  XYZ
  end
  begin
     id 2 
     name lfemur
     direction 0.34202 -0.939693 0  
     length 6.39105  
     axis 0 0 20  XYZ
    dof rx ry rz
    limits (-160.0 20.0)
           (-70.0 70.0)
           (-60.0 70.0)
  end
  begin
     id 3 
     name ltibia
     direction 0.34202 -0.939693 0   
     length 6.99037   
     axis 0 0 20   XYZ
    dof rx
    limits (-10.0 170.0)
  end
  begin
     id 4 
     name lfoot
     direction 0.0582372 -0.160005 0.985397   
     length 2.06111   
     axis -90 7.62852e-016 20   XYZ
    dof rx rz
    limits (-45.0 90.0)
           (-70.0 20.0)
  end
  begin
     id 5 
     name ltoes
     direction 1.53556e-011 -4.21875e-011 1   
     length 1.04074   
     axis -90 7.62852e-016 20   XYZ
    dof rx
    limits (-90.0 20.0)
  end
  begin
     id 6 
     name rhipjoint
     direction -0.558179 -0.726269 0.40121   
     length 2.182  
     axis 0 0 0  XYZ 
  end
  begin
     id 7 
     name rfemur
     direction -0.34202 -0.939693 0   
     length 6.51172   
     axis 0 0 -20   XYZ
    dof rx ry rz
    limits (-160.0 20.0)
           (-70.0 70.0)
           (-70.0 60.0)
  end
  begin
     id 8 
     name rtibia
     direction -0.34202 -0.939693 0   
     length 7.02607   
     axis 0 0 -20   XYZ
    dof rx
    limits (-10.0 170.0)
 end
 begin
     id 9 
     name rfoot
     direction -0.0788856 -0.216737 0.973038   
     length 1.96734  
     axis -90 -7.62852e-016 -20   XYZ
    dof rx rz
    limits (-45.0 90.0)
           (-20.0 70.0)
  end
  begin
     id 10 
     name rtoes
     direction -1.53567e-011 -4.21783e-011 1   
     length 0.990825   
     axis -90 -7.62852e-016 -20   XYZ
    dof rx
    limits (-90.0 20.0)
  end
  begin
     id 11 
     name lowerback
     direction 0.00668177 0.999323 -0.0361741   
     length 1.7655   
     axis 0 0 0   XYZ
    dof rx ry rz
    limits (-20.0 45.0)
           (-30.0 30.0)
           (-30.0 30.0)
  end
  begin
     id 12 
     name upperback
     direction -0.00222086 0.99851 0.0545167   
     length 1.74912   
     axis 0 0 0   XYZ
    dof rx ry rz
    limits (-20.0 45.0)
           (-30.0 30.0)
           (-30.0 30.0)
  end
  begin
     id 13 
     name thorax
     direction -0.00733971 0.997496 0.0703443   
     length 1.75715   
     axis 0 0 0   XYZ
    dof rx ry rz
    limits (-20.0 45.0)
           (-30.0 30.0)
           (-30.0 30.0)
  end
  begin
     id 14 
     name lowerneck
     direction 0.0279797 0.994795 0.0979765   
     length 1.46939   
     axis 0 0 0   XYZ
    dof rx ry rz
    limits (-20.0 45.0)
           (-30.0 30.0)
           (-30.0 30.0)
  end
  begin
     id 15 
     name upperneck
     direction 0.00339187 0.976776 -0.214238   
     length 1.48018   
     axis 0 0 0   XYZ
    dof rx ry rz
    limits (-20.0 45.0)
           (-30.0 30.0)
           (-30.0 30.0)
  end
  begin
     id 16
     name head
     direction -0.00263506 0.996603 -0.0823096  
     length 1.4976  
     axis 0 0 0   XYZ
    dof rx ry rz
    limits (-20.0 45.0)
           (-30.0 30.0)
           (-30.0 30.0)
  end
  begin
     id 17 
     name lclavicle
     direction 0.894044 0.44508 -0.0508781  
     length 3.03024  
     axis 0 0 0   XYZ
    dof ry rz
    limits (-20.0 10.0)
           (0.0 20.0)
  end
  begin
     id 18 
     name lhumerus
     direction 1 -4.48961e-011 -2.39475e-018   
     length 4.4661   
     axis 180 -30 -90   XYZ
    dof rx ry rz
    limits (-60.0 90.0)
           (-90.0 90.0)
           (-90.0 90.0)
  end
  begin
     id 19
     name lradius
     direction 1 -4.48961e-011 9.29328e-028   
     length 3.41414   
     axis 180 -30 -90   XYZ
    dof rx
    limits (-10.0 170.0)
  end
  begin
     id 20
     name lwrist
     direction 1 -4.48985e-011 1.53461e-026   
     length 1.70707   
     axis -1.09697e-014 90 90   XYZ
    dof ry
    limits (-180.0 0.0)
 end
  begin
     id 21 
     name lhand
     direction 1 -4.48966e-011 3.06923e-026   
     length 0.328298   
     axis -1.95843e-014 90 90   XYZ
    dof rx rz
    limits (-90.0 90.0)
           (-45.0 45.0)
  end
  begin
     id 22 
     name lfingers
     direction 1 -4.48893e-011 6.13845e-026   
     length 0.264682   
     axis -3.91686e-014 90 90   XYZ
    dof rx
    limits (0.0 90.0)
  end
  begin
     id 23
     name lthumb
     direction 0.707107 -6.34876e-011 0.707107   
     length 0.380032   
     axis -90 45 2.85299e-015   XYZ
    dof rx rz
    limits (-45.0 45.0)
           (-45.0 45.0)
  end
  begin
     id 24 
     name rclavicle
     direction -0.936955 0.347862 -0.0332887   
     length 3.26927  
     axis 0 0 0   XYZ 
    dof ry rz
    limits (-10.0 20.0)
           (-20.0 0.0)
  end
  begin
     id 25 
     name rhumerus
     direction -1 -4.4896e-011 1.78637e-018  
     length 4.40431   
     axis 180 30 90   XYZ
    dof rx ry rz
    limits (-90.0 60.0)
           (-90.0 90.0)
           (-90.0 90.0)
  end
  begin
     id 26 
     name rradius
     direction -1 -4.48955e-011 9.34036e-027   
     length 3.04688   
     axis 180 30 90   XYZ
    dof rx
    limits (-10.0 170.0)
  end
  begin
     id 27 
     name rwrist
     direction -1 -4.49011e-011 1.53461e-026   
     length 1.52344   
     axis -1.09697e-014 -90 -90   XYZ
    dof ry
    limits (-180.0 0.0)
  end
  begin
     id 28
     name rhand
     direction -1 -4.48834e-011 3.06923e-026   
     length 0.500489   
     axis -1.95843e-014 -90 -90   XYZ
    dof rx rz
    limits (-90.0 90.0)
           (-45.0 45.0)
  end
  begin
     id 29
     name rfingers
     direction -1 -4.48967e-011 6.13845e-026   
     length 0.403507   
     axis -3.91686e-014 -90 -90   XYZ
    dof rx
    limits (0.0 90.0)
  end
  begin
     id 30
     name rthumb
     direction -0.707107 -6.34826e-011 0.707107   
     length 0.579358   
     axis -90 -45 -2.85299e-015   XYZ
    dof rx rz
    limits (-45.0 45.0)
           (-45.0 45.0)
  end
:hierarchy
  begin
    root lhipjoint rhipjoint lowerback
    lhipjoint lfemur
    lfemur ltibia
    ltibia lfoot
    lfoot ltoes
    rhipjoint rfemur
    rfemur rtibia
    rtibia rfoot
    rfoot rtoes
    lowerback upperback
    upperback thorax
    thorax lowerneck lclavicle rclavicle
    lowerneck upperneck
    upperneck head
    lclavicle lhumerus
    lhumerus lradius
    lradius lwrist
    lwrist lhand lthumb
    lhand lfingers
    rclavicle rhumerus
    rhumerus rradius
    rradius rwrist
    rwrist rhand rthumb
    rhand rfingers
  end

#!OML:ASF H:\IndianDance\Patient Classification 1\Patient 1\Session 1\dancer.ASF
:FULLY-SPECIFIED
:DEGREES
1
root -27.0821 13.3582 21.8399 -174.966 -0.32688 -177.327
lowerback 6.55221 2.78842 2.44645
upperback -6.82263 3.79182 0.295496
thorax -10.8418 1.52548 -1.62187
lowerneck -19.7131 -1.04066 -0.21157
upperneck 22.8841 -2.60209 2.68078
head 10.6674 -1.06705 0.575486
rclavicle -2.37983e-014 -1.2424e-014
rhumerus -10.0206 40.1939 -0.857774
rradius 40.5769
rwrist -17.664
rhand -2.2207 13.1135
rfingers 7.12502
rthumb 23.4617 -15.476
lclavicle -2.37983e-014 -1.2424e-014
lhumerus -2.13907 -39.3041 -5.59919
lradius 33.8417
lwrist 14.7447
lhand -1.71619 -0.892352
lfingers 7.12502
lthumb 23.9456 27.6345
rfemur -42.8138 -44.7019 24.9222
rtibia 74.5987
rfoot -31.3234 -7.48484
rtoes 10.6717
lfemur -41.5013 35.3189 -22.2438
ltibia 73.6066
lfoot -32.9315 5.24263
ltoes 12.1732
2
root -27.0825 13.3505 21.8371 -174.973 -0.279728 -177.326
lowerback 6.5802 2.76695 2.46795
upperback -6.81769 3.76758 0.304981
thorax -10.8535 1.51246 -1.62139
lowerneck -19.3598 -1.48343 -0.618532
upperneck 22.5587 -3.10983 2.79986
head 10.4982 -1.32576 0.613376
rclavicle 2.74447e-014 2.5842e-015
rhumerus -9.98993 40.1491 -0.808236
rradius 40.6542
rwrist -17.7081
rhand -2.42526 13.07
rfingers 7.12502
rthumb 23.2655 -15.5444
lclavicle 2.74447e-014 2.5842e-015
lhumerus -2.2317 -39.3701 -5.54783
lradius 33.8903
lwrist 14.7245
lhand -1.75612 -0.819573
lfingers 7.12502
lthumb 23.9073 27.7123
rfemur -42.8416 -44.7215 24.8979
rtibia 74.6997
rfoot -31.3453 -7.38091
rtoes 10.8894
lfemur -41.5316 35.3807 -22.2183
ltibia 73.7236
lfoot -32.9776 5.08046
ltoes 12.5786
3
root -27.0839 13.3458 21.835 -174.967 -0.260565 -177.314
lowerback 6.5931 2.74902 2.5125
upperback -6.81384 3.75037 0.320477
thorax -10.856 1.50129 -1.62749
lowerneck -19.0936 -1.96962 -1.27419
upperneck 22.3434 -3.66208 3.1018
head 10.3991 -1.60423 0.751582
rclavicle -1.39398e-014 -9.93923e-016
rhumerus -10.0188 39.9869 -0.793288
rradius 40.6379
rwrist -17.5394
rhand -2.70794 13.2337
rfingers 7.12502
rthumb 22.9942 -15.4147
lclavicle -1.39398e-014 -9.93923e-016
lhumerus -2.27624 -39.5115 -5.50632
lradius 33.9607
lwrist 14.7166
lhand -1.71974 -0.835252
lfingers 7.12502
lthumb 23.9422 27.692
rfemur -42.8811 -44.695 24.8883
rtibia 74.798
rfoot -31.3939 -7.28048
rtoes 11.1066
lfemur -41.577 35.4232 -22.2161
ltibia 73.8311
lfoot -33.0026 5.20727
ltoes 12.0873
4
root -27.0836 13.3362 21.832 -174.971 -0.230019 -177.281
lowerback 6.60533 2.69586 2.56266
upperback -6.82954 3.68322 0.319368
thorax -10.8808 1.46337 -1.64725
lowerneck -18.7042 -2.40286 -1.67392
upperneck 22.0805 -4.18587 3.26044
head 10.2564 -1.86877 0.802348
rclavicle -4.80376e-014 -1.963e-014
rhumerus -9.83262 40.0733 -0.696125
rradius 40.6601
rwrist -17.5828
rhand -2.93034 13.1812
rfingers 7.12502
rthumb 22.7808 -15.4937
lclavicle -4.80376e-014 -1.963e-014
lhumerus -2.41751 -39.7074 -5.53468
lradius 34.0486
lwrist 14.6831
lhand -1.65059 -0.841903
lfingers 7.12502
lthumb 24.0085 27.6766
rfemur -42.924 -44.701 24.9002
rtibia 74.9162
rfoot -31.4217 -7.23523
rtoes 10.9617
lfemur -41.6306 35.5461 -22.1669
ltibia 73.9635
lfoot -33.0466 5.06421
ltoes 12.1703
5
root -27.085 13.3296 21.8296 -174.984 -0.211452 -177.286
lowerback 6.614 2.5999 2.56192
upperback -6.83207 3.55396 0.330222
thorax -10.8951 1.40092 -1.61585
lowerneck -18.3916 -2.81404 -1.99592
upperneck 21.8981 -4.68185 3.31421
head 10.1552 -2.12573 0.807408
rclavicle -1.61637e-014 -7.8023e-015
rhumerus -9.84783 39.2333 -0.848363
rradius 40.4159
rwrist -16.8104
rhand -2.62566 13.5001
rfingers 7.12502
rthumb 23.0732 -15.1385
lclavicle -1.61637e-014 -7.8023e-015
lhumerus -2.72988 -39.738 -5.41559
lradius 34.0829
lwrist 14.6375
lhand -1.61378 -0.903302
lfingers 7.12502
lthumb 24.0438 27.6106
rfemur -42.9601 -44.6874 24.8184
rtibia 75.0339
rfoot -31.4822 -6.86151
rtoes 12.1225
lfemur -41.6647 35.6132 -22.1624
ltibia 74.0775
lfoot -33.0564 5.039
ltoes 12.0439
6
root -27.0855 13.3225 21.8269 -174.99 -0.187715 -177.282
lowerback 6.62322 2.53397 2.57536
upperback -6.83804 3.46658 0.338162
thorax -10.9108 1.35725 -1.60193
lowerneck -18.0611 -3.24088 -2.39674
upperneck 21.6953 -5.19287 3.42922
head 10.0503 -2.38922 0.84651
rclavicle 9.56651e-016 -5.41688e-015
rhumerus -9.73295 39.0239 -0.843638
rradius 40.3468
rwrist -16.6746
rhand -2.58004 13.5449
rfingers 7.12502
rthumb 23.117 -15.0883
lclavicle 9.56651e-016 -5.41688e-015
lhumerus -2.93594 -39.8102 -5.34232
lradius 34.1353
lwrist 14.6536
lhand -1.555 -0.925916
lfingers 7.12502
lthumb 24.1001 27.5805
rfemur -42.9953 -44.6709 24.7792
rtibia 75.1493
rfoot -31.5318 -6.69858
rtoes 12.5577
lfemur -41.7028 35.6816 -22.1474
ltibia 74.1954
lfoot -33.0916 4.99214
ltoes 12.0137
7
root -27.086 13.3155 21.8242 -174.998 -0.167222 -177.281
lowerback 6.63089 2.46269 2.58081
upperback -6.84593 3.37085 0.346814
thorax -10.9286 1.31007 -1.58141
lowerneck -17.7307 -3.66302 -2.78394
upperneck 21.5091 -5.70074 3.52397
head 9.95368 -2.65295 0.877651
rclavicle -2.1183e-015 -3.13086e-015
rhumerus -9.58666 38.8727 -0.83151
rradius 40.2787
rwrist -16.618
rhand -2.48645 13.5476
rfingers 7.12502
rthumb 23.2068 -15.0742
lclavicle -2.1183e-015 -3.13086e-015
lhumerus -3.15937 -39.8492 -5.24945
lradius 34.1802
lwrist 14.6886
lhand -1.47986 -0.945572
lfingers 7.12502
lthumb 24.1722 27.5513
rfemur -43.0261 -44.6513 24.7385
rtibia 75.2611
rfoot -31.5797 -6.56956
rtoes 12.9048
lfemur -41.7366 35.7388 -22.1346
ltibia 74.3066
lfoot -33.1266 4.95036
ltoes 11.9965
8
root -27.0862 13.3083 21.8214 -175.006 -0.148059 -177.283
lowerback 6.63705 2.38651 2.579
upperback -6.85498 3.26768 0.358455
thorax -10.9476 1.25992 -1.55237
lowerneck -17.4019 -4.07898 -3.16151
upperneck 21.3368 -6.20154 3.59811
head 9.86397 -2.91524 0.901888
rclavicle -2.27174e-014 -1.07344e-014
rhumerus -9.40752 38.7832 -0.809704
rradius 40.2163
rwrist -16.636
rhand -2.36328 13.5115
rfingers 7.12502
rthumb 23.3249 -15.0954
lclavicle -2.27174e-014 -1.07344e-014
lhumerus -3.40688 -39.8487 -5.12838
lradius 34.2177
lwrist 14.7384
lhand -1.40117 -0.955006
lfingers 7.12502
lthumb 24.2476 27.5318
rfemur -43.0535 -44.6306 24.6979
rtibia 75.3698
rfoot -31.6261 -6.47692
rtoes 13.163
lfemur -41.7664 35.7838 -22.1229
ltibia 74.4155
lfoot -33.1662 4.91459
ltoes 12.0012
9
root -27.0864 13.3012 21.8186 -175.016 -0.131461 -177.288
lowerback 6.64256 2.31249 2.57153
upperback -6.8631 3.16697 0.372042
thorax -10.9655 1.21159 -1.51836
lowerneck -17.0851 -4.49619 -3.54265
upperneck 21.1798 -6.70463 3.66402
head 9.7847 -3.17964 0.924089
rclavicle -1.57164e-014 1.27222e-014
rhumerus -9.23405 38.7351 -0.791328
rradius 40.1623
rwrist -16.6893
rhand -2.24085 13.4503
rfingers 7.12502
rthumb 23.4424 -15.1416
lclavicle -1.57164e-014 1.27222e-014
lhumerus -3.65244 -39.7953 -4.98065
lradius 34.2431
lwrist 14.7847
lhand -1.32395 -0.95469
lfingers 7.12502
lthumb 24.3217 27.5222
rfemur -43.0785 -44.6106 24.6578
rtibia 75.4771
rfoot -31.6734 -6.4167
rtoes 13.336
lfemur -41.7923 35.813 -22.1132
ltibia 74.5217
lfoot -33.2113 4.89024
ltoes 12.0112
10
root -27.0863 13.2942 21.8158 -175.025 -0.117009 -177.297
lowerback 6.64679 1.83887 2.5115
upperback -6.8667 3.15824 0.425166
thorax -10.9925 1.47984 -1.47979
lowerneck -16.7769 -4.91118 -3.93046
upperneck 21.0354 -7.20664 3.73083
head 9.7145 -3.44387 0.948294
rclavicle 3.72659e-014 1.03368e-014
rhumerus -9.05765 38.7606 -0.771124
rradius 40.1276
rwrist -16.7832
rhand -2.14917 13.3655
rfingers 7.12502
rthumb 23.5303 -15.2152
lclavicle 3.72659e-014 1.03368e-014
lhumerus -3.90061 -39.6931 -4.80788
lradius 34.2571
lwrist 14.8155
lhand -1.2626 -0.948168
lfingers 7.12502
lthumb 24.3805 27.5208
rfemur -43.1026 -44.5894 24.6161
rtibia 75.5848
rfoot -31.7255 -6.3678
rtoes 13.4952
lfemur -41.8143 35.8285 -22.1062
ltibia 74.6247
lfoot -33.2622 4.88122
ltoes 12.0139
11
root -27.0861 13.2868 21.8131 -175.036 -0.104546 -177.309
lowerback 6.65404 1.76584 2.49303
upperback -6.87451 3.06017 0.443066
thorax -11.0114 1.43475 -1.43559
lowerneck -16.4809 -5.3205 -4.33125
upperneck 20.9058 -7.70302 3.80626
head 9.65525 -3.70534 0.978484
rclavicle -3.61788e-014 -1.39149e-014
rhumerus -8.90718 38.7786 -0.768704
rradius 40.0984
rwrist -16.8129
rhand -2.08752 13.3031
rfingers 7.12502
rthumb 23.5894 -15.27
lclavicle -3.61788e-014 -1.39149e-014
lhumerus -4.15414 -39.5508 -4.61111
lradius 34.2609
lwrist 14.8244
lhand -1.22607 -0.93409
lfingers 7.12502
lthumb 24.4155 27.5302
rfemur -43.1266 -44.5785 24.5788
rtibia 75.6939
rfoot -31.7751 -6.36536
rtoes 13.4858
lfemur -41.8338 35.8293 -22.0997
ltibia 74.7267
lfoot -33.3155 4.87626
ltoes 12.0359
12
root -27.0857 13.2793 21.8105 -175.046 -0.0934357 -177.322
lowerback 6.66247 1.69418 2.47304
upperback -6.88176 2.9637 0.460977
thorax -11.0302 1.39054 -1.39074
lowerneck -16.1987 -5.7209 -4.73089
upperneck 20.7872 -8.19205 3.88891
head 9.60515 -3.9622 1.01188
rclavicle -1.22377e-015 -2.93207e-015
rhumerus -8.78499 38.7932 -0.788494
rradius 40.0746
rwrist -16.7755
rhand -2.06696 13.2753
rfingers 7.12502
rthumb 23.6092 -15.2953
lclavicle -1.22377e-015 -2.93207e-015
lhumerus -4.40663 -39.381 -4.40419
lradius 34.2556
lwrist 14.8101
lhand -1.22184 -0.922284
lfingers 7.12502
lthumb 24.4196 27.5415
rfemur -43.1533 -44.5713 24.5423
rtibia 75.8049
rfoot -31.8261 -6.3633
rtoes 13.4758
lfemur -41.8528 35.8184 -22.0945
ltibia 74.8271
lfoot -33.3686 4.88364
ltoes 12.0447
13
root -27.0852 13.2727 21.808 -175.056 -0.0841363 -177.331
lowerback 6.67235 1.623 2.45627
upperback -6.88803 2.86818 0.479197
thorax -11.0486 1.34653 -1.34746
lowerneck -15.9305 -6.10738 -5.129
upperneck 20.6758 -8.66717 3.98319
head 9.56272 -4.21081 1.05068
rclavicle 1.67538e-014 -7.30534e-015
rhumerus -8.68901 38.8057 -0.829383
rradius 40.0589
rwrist -16.6773
rhand -2.07505 13.2823
rfingers 7.12502
rthumb 23.6014 -15.2892
lclavicle 1.67538e-014 -7.30534e-015
lhumerus -4.65957 -39.1891 -4.18925
lradius 34.2402
lwrist 14.7716
lhand -1.24848 -0.920542
lfingers 7.12502
lthumb 24.394 27.5466
rfemur -43.1803 -44.5533 24.4977
rtibia 75.9136
rfoot -31.8852 -6.27031
rtoes 13.7965
lfemur -41.8671 35.7961 -22.0844
ltibia 74.9212
lfoot -33.422 4.88943
ltoes 12.0879
14
root -27.0846 13.266 21.8056 -175.066 -0.0761072 -177.337
lowerback 6.68279 1.55047 2.44185
upperback -6.89242 2.77068 0.496317
thorax -11.065 1.30128 -1.30623
lowerneck -15.6759 -6.47218 -5.49618
upperneck 20.5637 -9.1201 4.07424
head 9.52238 -4.44659 1.08624
rclavicle 3.09328e-014 1.21259e-014
rhumerus -8.6205 38.8043 -0.902455
rradius 40.0552
rwrist -16.5286
rhand -2.10205 13.315
rfingers 7.12502
rthumb 23.5755 -15.2599
lclavicle 3.09328e-014 1.21259e-014
lhumerus -4.91318 -39.0003 -3.98259
lradius 34.2204
lwrist 14.7294
lhand -1.30047 -0.924518
lfingers 7.12502
lthumb 24.3442 27.5494
rfemur -43.2062 -44.5346 24.4635
rtibia 76.0196
rfoot -31.9401 -6.21106
rtoes 14.0133
lfemur -41.8824 35.7662 -22.0696
ltibia 75.0146
lfoot -33.4732 4.90236
ltoes 12.1294
15
root -27.0839 13.2599 21.8033 -175.076 -0.0682023 -177.336
lowerback 6.694 1.47701 2.43311
upperback -6.89553 2.67226 0.512082
thorax -11.08 1.25503 -1.26942
lowerneck -15.4377 -6.81255 -5.83461
upperneck 20.4558 -9.54684 4.16434
head 9.48595 -4.66763 1.12003
rclavicle -3.54365e-014 -6.55989e-015
rhumerus -8.54971 38.8279 -0.980904
rradius 40.0578
rwrist -16.3976
rhand -2.13012 13.3637
rfingers 7.12502
rthumb 23.5486 -15.2147
lclavicle -3.54365e-014 -6.55989e-015
lhumerus -5.16205 -38.8305 -3.79178
lradius 34.1969
lwrist 14.6947
lhand -1.36132 -0.933381
lfingers 7.12502
lthumb 24.2858 27.5483
rfemur -43.2274 -44.5037 24.434
rtibia 76.118
rfoot -31.9948 -6.14072
rtoes 14.2993
lfemur -41.8958 35.7306 -22.0469
ltibia 75.1034
lfoot -33.5217 4.91518
ltoes 12.1926
